<?xml version="1.0" encoding="UTF-8"?>
<!DOCTYPE svg PUBLIC "-//W3C//DTD SVG 1.1//EN" "http://www.w3.org/Graphics/SVG/1.1/DTD/svg11.dtd">
<!-- Creator: CorelDRAW X5 -->
<svg xmlns="http://www.w3.org/2000/svg" xml:space="preserve" width="35.1548mm" height="12.839mm" style="shape-rendering:geometricPrecision; text-rendering:geometricPrecision; image-rendering:optimizeQuality; fill-rule:evenodd; clip-rule:evenodd"
viewBox="0 0 49.8874 18.2195"
 xmlns:xlink="http://www.w3.org/1999/xlink">
 <defs>
  <style type="text/css">
   <![CDATA[
    .fil0 {fill:black;fill-rule:nonzero}
   ]]>
  </style>
 </defs>
 <g id="Layer_x0020_1">
  <metadata id="CorelCorpID_0Corel-Layer"/>
  <polygon class="fil0" points="3.25167,18.0352 1.48762,18.0352 1.48762,0.184338 3.25167,0.184338 "/>
  <path id="1" class="fil0" d="M7.44207 16.3884l3.47376 0c0.532154,0 0.942835,-0.134103 1.24042,-0.402308 0.293323,-0.272321 0.439914,-0.64937 0.439914,-1.13129l0 -3.15532c0,-0.448428 -0.0796102,-0.838107 -0.238831,-1.16492 -0.15922,-0.326955 -0.377049,-0.578274 -0.649512,-0.750124 -0.276578,-0.17185 -0.582389,-0.255576 -0.917717,-0.255576l-3.34803 0 0 -1.64684 3.34803 0c0.498664,0 0.888342,-0.17185 1.16081,-0.515409 0.276578,-0.343559 0.410681,-0.825477 0.410681,-1.44987l0 -2.56441c0,-0.481919 -0.134103,-0.859109 -0.410681,-1.12306 -0.272463,-0.263948 -0.653769,-0.398051 -1.13555,-0.398051l-3.37329 0 0 -1.64684 3.31454 0c0.708261,0 1.31577,0.121473 1.8228,0.364561 0.502921,0.238831 0.888342,0.586647 1.15243,1.04345 0.263948,0.452544 0.398051,1.00144 0.398051,1.65095l0 2.39271c0,0.565644 -0.0628651,1.06431 -0.196968,1.49585 -0.129846,0.435799 -0.318441,0.791987 -0.561529,1.06857 -0.247203,0.280835 -0.544784,0.469289 -0.896715,0.565786 0.398051,0.0837256 0.74161,0.268064 1.02245,0.553014 0.284951,0.284951 0.498664,0.657884 0.645254,1.11894 0.146733,0.456659 0.222086,0.988813 0.222086,1.5922l0 2.86199c0,0.662141 -0.129846,1.22779 -0.385421,1.70133 -0.259833,0.469289 -0.632767,0.829734 -1.1188,1.07268 -0.486176,0.247345 -1.07694,0.368818 -1.77257,0.368818l-3.64561 0 0 -1.64684zm-1.47499 -16.204l1.76831 0 0 17.8509 -1.76831 0 0 -17.8509z"/>
  <path id="12" class="fil0" d="M20.6626 18.2195c-0.86734,0 -1.61321,-0.180081 -2.23334,-0.540527 -0.620279,-0.360304 -1.09794,-0.87997 -1.42475,-1.56723 -0.326813,-0.683002 -0.490291,-1.50011 -0.490291,-2.45969l0 -9.07216c0,-0.963695 0.163478,-1.78917 0.490291,-2.47217 0.326813,-0.683144 0.80036,-1.20693 1.4205,-1.56723 0.616021,-0.360446 1.36189,-0.540527 2.2376,-0.540527 0.875854,0 1.62584,0.180081 2.24612,0.540527 0.624252,0.360304 1.0978,0.884085 1.4205,1.56723 0.322698,0.683002 0.481919,1.50422 0.481919,2.45969l0 0.649512 -1.7642 0 0 -0.649512c0,-0.603392 -0.09224,-1.1188 -0.276578,-1.54623 -0.184338,-0.427426 -0.456659,-0.750124 -0.812847,-0.976325 -0.356188,-0.226343 -0.787872,-0.335328 -1.29491,-0.335328 -0.498664,0 -0.92609,0.108985 -1.28214,0.335328 -0.356188,0.226201 -0.628651,0.553014 -0.817247,0.98044 -0.188453,0.431683 -0.280693,0.951207 -0.280693,1.5546l0 9.07216c0,0.599276 0.09224,1.11043 0.280693,1.54211 0.188595,0.427284 0.461058,0.75424 0.817247,0.98044 0.356046,0.226343 0.783473,0.339443 1.28214,0.339443 0.507036,0 0.93872,-0.1131 1.29491,-0.339443 0.356188,-0.226201 0.628509,-0.548899 0.812847,-0.976325 0.184338,-0.423169 0.276578,-0.938578 0.276578,-1.54623l0 -0.649512 1.7642 0 0 0.649512c0,0.95958 -0.15922,1.77668 -0.481919,2.45969 -0.322698,0.687259 -0.796244,1.20693 -1.4205,1.56723 -0.620279,0.360446 -1.37026,0.540527 -2.24612,0.540527z"/>
  <polygon class="fil0" points="28.5551,4.25127 27.9064,4.25127 27.9064,0.169438 28.5551,0.169438 "/>
  <path id="1" class="fil0" d="M31.6969 2.03113l0 0.982143c0,0.259691 -0.0498096,0.486743 -0.150422,0.679312 -0.0996192,0.192711 -0.242378,0.341146 -0.426433,0.444597 -0.184906,0.104444 -0.401457,0.15624 -0.649654,0.15624 -0.25288,0 -0.473262,-0.0488163 -0.660155,-0.147584 -0.186892,-0.0976325 -0.331496,-0.238547 -0.432109,-0.420614 -0.100613,-0.183061 -0.151416,-0.398619 -0.151416,-0.647667l0 -1.6616c0,-0.263523 0.0498096,-0.49242 0.148577,-0.684989 0.0996192,-0.192711 0.241385,-0.341146 0.426291,-0.446584 0.185899,-0.104444 0.40245,-0.157092 0.65164,-0.157092 0.243372,0 0.45226,0.0469715 0.625671,0.140772 0.174405,0.0929496 0.310494,0.232871 0.40912,0.417776 0.0977744,0.185899 0.15624,0.414938 0.175398,0.687969l0 0 -0.679454 0 0 0c-0.0114945,-0.135096 -0.0401599,-0.24621 -0.086138,-0.335328 -0.0451267,-0.089118 -0.106431,-0.155247 -0.182068,-0.199238 -0.0757787,-0.0441333 -0.16291,-0.066129 -0.262529,-0.066129 -0.115939,0 -0.216551,0.0258272 -0.301838,0.078475 -0.0852865,0.0527897 -0.151416,0.126582 -0.197394,0.223363 -0.0469715,0.0967811 -0.0709539,0.20974 -0.0709539,0.341004l0 1.6616c0,0.115939 0.0239824,0.217403 0.0719472,0.303683 0.0478229,0.0862799 0.115939,0.151416 0.205057,0.197394 0.089118,0.0459781 0.192569,0.0689672 0.310352,0.0689672 0.117925,0 0.219531,-0.0248339 0.305669,-0.0747854 0.0862799,-0.0488163 0.152409,-0.120622 0.19938,-0.214564 0.0469715,-0.0929496 0.0699605,-0.205057 0.0699605,-0.336321l0 -0.376623 -0.561529 0 0 -0.614177 1.21303 0z"/>
  <polygon id="12" class="fil0" points="32.3964,0.169438 33.0164,0.169438 34.4143,3.20399 34.3387,3.28545 34.3387,0.169438 34.9509,0.169438 34.9509,4.24843 34.3272,4.24843 32.9349,1.30101 33.0077,1.21955 33.0077,4.24843 32.3964,4.24843 "/>
  <path id="123" class="fil0" d="M36.188 0.506752l0.642842 0 0 3.74452 -0.642842 0 0 -3.74452zm-0.918001 -0.337315l2.47601 0 0 0.61517 -2.47601 0 0 -0.61517z"/>
  <polygon id="1234" class="fil0" points="38.687,4.25127 38.0384,4.25127 38.0384,0.169438 38.687,0.169438 "/>
  <path id="12345" class="fil0" d="M39.8972 0.506752l0.642842 0 0 3.74452 -0.642842 0 0 -3.74452zm-0.918001 -0.337315l2.47601 0 0 0.61517 -2.47601 0 0 -0.61517z"/>
  <path id="123456" class="fil0" d="M41.7762 0.169438l0.642984 0 0 4.08183 -0.642984 0 0 -4.08183zm0.286512 3.46383l1.94513 0 0 0.618008 -1.94513 0 0 -0.618008zm0 -1.71808l1.71992 0 0 0.618008 -1.71992 0 0 -0.618008zm0 -1.74575l1.94513 0 0 0.618008 -1.94513 0 0 -0.618008z"/>
  <path id="1234567" class="fil0" d="M28.2887 10.5419l0.923677 0c0.166742,0 0.292188,-0.0374636 0.378468,-0.112107 0.0862799,-0.0747854 0.129278,-0.180223 0.129278,-0.317164l0 -0.275017c0,-0.103451 -0.0181642,-0.190724 -0.0544926,-0.263523 -0.0364703,-0.073792 -0.0911048,-0.12942 -0.16291,-0.168586 -0.0719472,-0.0393084 -0.161065,-0.0594593 -0.265509,-0.0594593l-0.948511 0 0 -0.600837 0.942835 0c0.142759,0 0.251035,-0.0383151 0.32582,-0.115939 0.0746435,-0.0776235 0.112107,-0.188737 0.112107,-0.333341l0 -0.21272c0,-0.131265 -0.0393084,-0.231877 -0.117925,-0.301838 -0.0786169,-0.0699605 -0.190724,-0.105437 -0.336321,-0.105437l-0.926516 0 0 -0.606514 0.973487 0c0.225208,0 0.41579,0.0383151 0.573023,0.114945 0.157092,0.0766302 0.275869,0.187744 0.35633,0.331496 0.0806036,0.143753 0.120763,0.318157 0.120763,0.52222l0 0.216551c0,0.138076 -0.0248339,0.261678 -0.0756368,0.371798 -0.050803,0.109269 -0.125588,0.200232 -0.226201,0.272179 -0.0996192,0.0718053 -0.220383,0.120622 -0.360304,0.147442 0.149571,0.0201509 0.277997,0.0691091 0.386273,0.145739 0.107282,0.0766302 0.188737,0.175256 0.245217,0.295026 0.0566212,0.119912 0.0842932,0.25586 0.0842932,0.409262l0 0.277855c0,0.202077 -0.0411532,0.377475 -0.123602,0.524065 -0.0823065,0.146591 -0.202077,0.258698 -0.35931,0.336321 -0.157092,0.0776235 -0.343984,0.116932 -0.561529,0.116932l-1.0328 0 0 -0.609352zm-0.353634 -3.47248l0.642984 0 0 4.08183 -0.642984 0 0 -4.08183z"/>
  <path id="12345678" class="fil0" d="M32.1569 11.1934c-0.254866,0 -0.472411,-0.0488163 -0.652492,-0.147584 -0.181074,-0.0976325 -0.318157,-0.241385 -0.411958,-0.429271 -0.0929496,-0.187744 -0.139921,-0.414796 -0.139921,-0.681157l0 -2.86597 0.642842 0 0 2.88598c0,0.192569 0.0489582,0.341146 0.147584,0.446584 0.0977744,0.104444 0.235709,0.157092 0.413945,0.157092 0.181074,0 0.320995,-0.0526478 0.419763,-0.157092 0.0976325,-0.105437 0.146591,-0.254015 0.146591,-0.446584l0 -2.88598 0.642842 0 0 2.86597c0,0.266361 -0.0468295,0.493413 -0.141766,0.681157 -0.0939429,0.187886 -0.231877,0.331638 -0.411958,0.429271 -0.181074,0.0987678 -0.399612,0.147584 -0.655472,0.147584z"/>
  <path id="123456789" class="fil0" d="M35.1742 11.1934c-0.223363,0 -0.419763,-0.0334902 -0.591188,-0.101606 -0.171566,-0.0669804 -0.313332,-0.165748 -0.426433,-0.297013 -0.1131,-0.131265 -0.193562,-0.293181 -0.240534,-0.48575l0 0 0.606514 -0.266361 0 0c0.050803,0.173411 0.134103,0.305669 0.250041,0.395639 0.115939,0.0901114 0.256853,0.134245 0.423595,0.134245 0.191575,0 0.339159,-0.0412951 0.443604,-0.124595 0.105437,-0.0834417 0.157234,-0.19938 0.157234,-0.349803l0 -0.179088c0,-0.106431 -0.0288073,-0.194555 -0.0872732,-0.262529 -0.0574726,-0.0681157 -0.131265,-0.121757 -0.221376,-0.160072 -0.0899695,-0.0383151 -0.208888,-0.0804617 -0.35633,-0.124595 -0.00397342,-0.0018448 -0.00780492,-0.00383151 -0.0124879,-0.00482486 -0.00482486,-0.000851446 -0.00964973,-0.0018448 -0.0124879,-0.00383151l-0.0316454 -0.00851446c-0.224214,-0.0651356 -0.407275,-0.132258 -0.548048,-0.200374 -0.141766,-0.0689672 -0.262529,-0.176249 -0.362149,-0.32284 -0.100613,-0.147584 -0.150564,-0.344978 -0.150564,-0.594026l0 -0.112107c0,-0.231877 0.0479648,-0.430264 0.144746,-0.595019 0.0957877,-0.164897 0.236702,-0.290343 0.422601,-0.374778 0.184906,-0.0851446 0.408127,-0.128285 0.670656,-0.128285 0.1964,0 0.370805,0.0324969 0.523214,0.0967811 0.152409,0.0651356 0.279842,0.15993 0.382299,0.286512 0.101606,0.12644 0.177243,0.282538 0.226201,0.467586l0 0 -0.58168 0.269199 0 0c-0.050803,-0.16291 -0.124595,-0.287505 -0.223221,-0.372792 -0.0977744,-0.086138 -0.213713,-0.129278 -0.346964,-0.129278 -0.184906,0 -0.327665,0.0393084 -0.427284,0.117783 -0.100613,0.0786169 -0.150422,0.189731 -0.150422,0.333483l0 0.135096c0,0.112107 0.0296587,0.203212 0.0901114,0.272179 0.0593174,0.0699605 0.135096,0.123602 0.225066,0.16291 0.0911048,0.0391665 0.216551,0.0823065 0.37563,0.129278 0.00865637,0.00383151 0.0183061,0.00666966 0.0278139,0.00964973 0.00964973,0.00283815 0.0191575,0.00666966 0.0306521,0.00950782 0.00766302,0.00198671 0.015326,0.00482486 0.0239824,0.00766302 0.00865637,0.00283815 0.0171708,0.00482486 0.0268206,0.00681157 0.204063,0.0641423 0.372792,0.130271 0.506894,0.201083 0.133109,0.0699605 0.245217,0.175398 0.336321,0.317164 0.0909628,0.140914 0.13609,0.330645 0.13609,0.568199l0 0.179229c0,0.232871 -0.0489582,0.430264 -0.146591,0.594026 -0.0987678,0.163903 -0.24252,0.288498 -0.431258,0.374778 -0.188737,0.086138 -0.416783,0.129278 -0.68215,0.129278z"/>
  <polygon id="12345678910" class="fil0" points="37.6924,11.1513 37.0437,11.1513 37.0437,7.06942 37.6924,7.06942 "/>
  <polygon id="1234567891011" class="fil0" points="38.4062,7.06942 39.0262,7.06942 40.4241,10.104 40.3485,10.1854 40.3485,7.06942 40.9607,7.06942 40.9607,11.1484 40.337,11.1484 38.9447,8.20099 39.0175,8.11953 39.0175,11.1484 38.4062,11.1484 "/>
  <path id="123456789101112" class="fil0" d="M41.7014 7.06942l0.642984 0 0 4.08183 -0.642984 0 0 -4.08183zm0.286512 3.46383l1.94513 0 0 0.618008 -1.94513 0 0 -0.618008zm0 -1.71808l1.71992 0 0 0.618008 -1.71992 0 0 -0.618008zm0 -1.74575l1.94513 0 0 0.618008 -1.94513 0 0 -0.618008z"/>
  <path id="12345678910111213" class="fil0" d="M45.6177 11.1934c-0.223363,0 -0.419763,-0.0334902 -0.591188,-0.101606 -0.171566,-0.0669804 -0.313332,-0.165748 -0.426433,-0.297013 -0.1131,-0.131265 -0.193562,-0.293181 -0.240534,-0.48575l0 0 0.606514 -0.266361 0 0c0.050803,0.173411 0.134103,0.305669 0.250041,0.395639 0.115939,0.0901114 0.256853,0.134245 0.423595,0.134245 0.191575,0 0.339159,-0.0412951 0.443604,-0.124595 0.105437,-0.0834417 0.157234,-0.19938 0.157234,-0.349803l0 -0.179088c0,-0.106431 -0.0288073,-0.194555 -0.0872732,-0.262529 -0.0574726,-0.0681157 -0.131265,-0.121757 -0.221376,-0.160072 -0.0899695,-0.0383151 -0.208888,-0.0804617 -0.35633,-0.124595 -0.00397342,-0.0018448 -0.00780492,-0.00383151 -0.0124879,-0.00482486 -0.00482486,-0.000851446 -0.00964973,-0.0018448 -0.0124879,-0.00383151l-0.0316454 -0.00851446c-0.224214,-0.0651356 -0.407275,-0.132258 -0.548048,-0.200374 -0.141766,-0.0689672 -0.262529,-0.176249 -0.362149,-0.32284 -0.100613,-0.147584 -0.150564,-0.344978 -0.150564,-0.594026l0 -0.112107c0,-0.231877 0.0479648,-0.430264 0.144746,-0.595019 0.0957877,-0.164897 0.236702,-0.290343 0.422601,-0.374778 0.184906,-0.0851446 0.408127,-0.128285 0.670656,-0.128285 0.1964,0 0.370805,0.0324969 0.523214,0.0967811 0.152409,0.0651356 0.279842,0.15993 0.382299,0.286512 0.101606,0.12644 0.177243,0.282538 0.226201,0.467586l0 0 -0.58168 0.269199 0 0c-0.050803,-0.16291 -0.124595,-0.287505 -0.223221,-0.372792 -0.0977744,-0.086138 -0.213713,-0.129278 -0.346964,-0.129278 -0.184906,0 -0.327665,0.0393084 -0.427284,0.117783 -0.100613,0.0786169 -0.150422,0.189731 -0.150422,0.333483l0 0.135096c0,0.112107 0.0296587,0.203212 0.0901114,0.272179 0.0593174,0.0699605 0.135096,0.123602 0.225066,0.16291 0.0911048,0.0391665 0.216551,0.0823065 0.37563,0.129278 0.00865637,0.00383151 0.0183061,0.00666966 0.0278139,0.00964973 0.00964973,0.00283815 0.0191575,0.00666966 0.0306521,0.00950782 0.00766302,0.00198671 0.015326,0.00482486 0.0239824,0.00766302 0.00865637,0.00283815 0.0171708,0.00482486 0.0268206,0.00681157 0.204063,0.0641423 0.372792,0.130271 0.506894,0.201083 0.133109,0.0699605 0.245217,0.175398 0.336321,0.317164 0.0909628,0.140914 0.13609,0.330645 0.13609,0.568199l0 0.179229c0,0.232871 -0.0489582,0.430264 -0.146591,0.594026 -0.0987678,0.163903 -0.24252,0.288498 -0.431258,0.374778 -0.188737,0.086138 -0.416783,0.129278 -0.68215,0.129278z"/>
  <path id="1234567891011121314" class="fil0" d="M48.6274 11.1934c-0.223363,0 -0.419763,-0.0334902 -0.591188,-0.101606 -0.171566,-0.0669804 -0.313332,-0.165748 -0.426433,-0.297013 -0.1131,-0.131265 -0.193562,-0.293181 -0.240534,-0.48575l0 0 0.606514 -0.266361 0 0c0.050803,0.173411 0.134103,0.305669 0.250041,0.395639 0.115939,0.0901114 0.256853,0.134245 0.423595,0.134245 0.191575,0 0.339159,-0.0412951 0.443604,-0.124595 0.105437,-0.0834417 0.157234,-0.19938 0.157234,-0.349803l0 -0.179088c0,-0.106431 -0.0288073,-0.194555 -0.0872732,-0.262529 -0.0574726,-0.0681157 -0.131265,-0.121757 -0.221376,-0.160072 -0.0899695,-0.0383151 -0.208888,-0.0804617 -0.35633,-0.124595 -0.00397342,-0.0018448 -0.00780492,-0.00383151 -0.0124879,-0.00482486 -0.00482486,-0.000851446 -0.00964973,-0.0018448 -0.0124879,-0.00383151l-0.0316454 -0.00851446c-0.224214,-0.0651356 -0.407275,-0.132258 -0.548048,-0.200374 -0.141766,-0.0689672 -0.262529,-0.176249 -0.362149,-0.32284 -0.100613,-0.147584 -0.150564,-0.344978 -0.150564,-0.594026l0 -0.112107c0,-0.231877 0.0479648,-0.430264 0.144746,-0.595019 0.0957877,-0.164897 0.236702,-0.290343 0.422601,-0.374778 0.184906,-0.0851446 0.408127,-0.128285 0.670656,-0.128285 0.1964,0 0.370805,0.0324969 0.523214,0.0967811 0.152409,0.0651356 0.279842,0.15993 0.382299,0.286512 0.101606,0.12644 0.177243,0.282538 0.226201,0.467586l0 0 -0.58168 0.269199 0 0c-0.050803,-0.16291 -0.124595,-0.287505 -0.223221,-0.372792 -0.0977744,-0.086138 -0.213713,-0.129278 -0.346964,-0.129278 -0.184906,0 -0.327665,0.0393084 -0.427284,0.117783 -0.100613,0.0786169 -0.150422,0.189731 -0.150422,0.333483l0 0.135096c0,0.112107 0.0296587,0.203212 0.0901114,0.272179 0.0593174,0.0699605 0.135096,0.123602 0.225066,0.16291 0.0911048,0.0391665 0.216551,0.0823065 0.37563,0.129278 0.00865637,0.00383151 0.0183061,0.00666966 0.0278139,0.00964973 0.00964973,0.00283815 0.0191575,0.00666966 0.0306521,0.00950782 0.00766302,0.00198671 0.015326,0.00482486 0.0239824,0.00766302 0.00865637,0.00283815 0.0171708,0.00482486 0.0268206,0.00681157 0.204063,0.0641423 0.372792,0.130271 0.506894,0.201083 0.133109,0.0699605 0.245217,0.175398 0.336321,0.317164 0.0909628,0.140914 0.13609,0.330645 0.13609,0.568199l0 0.179229c0,0.232871 -0.0489582,0.430264 -0.146591,0.594026 -0.0987678,0.163903 -0.24252,0.288498 -0.431258,0.374778 -0.188737,0.086138 -0.416783,0.129278 -0.68215,0.129278z"/>
  <path id="123456789101112131415" class="fil0" d="M29.1003 18.0934c-0.24919,0 -0.464748,-0.050803 -0.645822,-0.15326 -0.182068,-0.101606 -0.320995,-0.248197 -0.416783,-0.440765 -0.0967811,-0.191717 -0.144746,-0.420614 -0.144746,-0.686124l0 -1.60299c0,-0.265509 0.0479648,-0.494407 0.144746,-0.687969 0.0957877,-0.192569 0.234715,-0.340153 0.416783,-0.441759 0.181074,-0.101606 0.396632,-0.15326 0.645822,-0.15326 0.242378,0 0.450273,0.0488163 0.622833,0.146591 0.172418,0.0967811 0.306521,0.242378 0.40245,0.435941 0.0967811,0.193562 0.154254,0.434096 0.173411,0.720607l0 0 -0.657317 0 0 0c-0.0114945,-0.146591 -0.0403018,-0.268348 -0.0872732,-0.366973 -0.0469715,-0.0977744 -0.108276,-0.17256 -0.184906,-0.223363 -0.0766302,-0.0498096 -0.166742,-0.0756368 -0.269199,-0.0756368 -0.1131,0 -0.209882,0.0268206 -0.29233,0.0786169 -0.0823065,0.0526478 -0.145597,0.127433 -0.190582,0.223221 -0.0451267,0.0967811 -0.0681157,0.210733 -0.0681157,0.343984l0 1.60299c0,0.133251 0.0229891,0.247203 0.0681157,0.343984 0.0449847,0.0957877 0.108276,0.170573 0.190582,0.221376 0.0824484,0.0517963 0.179229,0.0776235 0.29233,0.0776235 0.104444,0 0.194414,-0.0249758 0.270192,-0.0747854 0.0756368,-0.0488163 0.136941,-0.123602 0.183912,-0.221376 0.0469715,-0.0986259 0.0757787,-0.221234 0.0872732,-0.368818l0 0 0.657317 0 0 0c-0.0191575,0.285518 -0.0766302,0.526052 -0.173411,0.719614 -0.0959296,0.193562 -0.230032,0.339159 -0.40245,0.436934 -0.17256,0.0967811 -0.380455,0.145597 -0.622833,0.145597z"/>
  <path id="12345678910111213141516" class="fil0" d="M31.8675 13.9694l0.48873 0 1.24552 4.08183 -0.676474 0 -0.813415 -3.00106 -0.81157 3.00106 -0.679454 0 1.24666 -4.08183zm-0.567205 2.70391l1.65379 0 0 0.6085 -1.65379 0 0 -0.6085z"/>
  <path id="1234567891011121314151617" class="fil0" d="M34.5457 14.3067l0.642842 0 0 3.74452 -0.642842 0 0 -3.74452zm-0.918001 -0.337315l2.47601 0 0 0.61517 -2.47601 0 0 -0.61517z"/>
  <path id="123456789101112131415161718" class="fil0" d="M37.3762 13.9694l0.48873 0 1.24552 4.08183 -0.676474 0 -0.813415 -3.00106 -0.81157 3.00106 -0.679454 0 1.24666 -4.08183zm-0.567205 2.70391l1.65379 0 0 0.6085 -1.65379 0 0 -0.6085z"/>
  <path id="12345678910111213141516171819" class="fil0" d="M39.5581 13.9694l0.642984 0 0 4.08183 -0.642984 0 0 -4.08183zm0.299993 3.46666l1.90383 0 0 0.61517 -1.90383 0 0 -0.61517z"/>
  <polygon id="1234567891011121314151617181920" class="fil0" points="43.4512,16.4261 43.4512,18.0512 42.8082,18.0512 42.8082,16.4261 41.8002,13.9694 42.4795,13.9694 43.1283,15.7296 43.7655,13.9694 44.442,13.9694 "/>
  <path id="123456789101112131415161718192021" class="fil0" d="M45.8314 18.0934c-0.223363,0 -0.419763,-0.0334902 -0.591188,-0.101606 -0.171566,-0.0669804 -0.313332,-0.165748 -0.426433,-0.297013 -0.1131,-0.131265 -0.193562,-0.293181 -0.240534,-0.48575l0 0 0.606514 -0.266361 0 0c0.050803,0.173411 0.134103,0.305669 0.250041,0.395639 0.115939,0.0901114 0.256853,0.134245 0.423595,0.134245 0.191575,0 0.339159,-0.0412951 0.443604,-0.124595 0.105437,-0.0834417 0.157234,-0.19938 0.157234,-0.349803l0 -0.179088c0,-0.106431 -0.0288073,-0.194555 -0.0872732,-0.262529 -0.0574726,-0.0681157 -0.131265,-0.121757 -0.221376,-0.160072 -0.0899695,-0.0383151 -0.208888,-0.0804617 -0.35633,-0.124595 -0.00397342,-0.0018448 -0.00780492,-0.00383151 -0.0124879,-0.00482486 -0.00482486,-0.000851446 -0.00964973,-0.0018448 -0.0124879,-0.00383151l-0.0316454 -0.00851446c-0.224214,-0.0651356 -0.407275,-0.132258 -0.548048,-0.200374 -0.141766,-0.0689672 -0.262529,-0.176249 -0.362149,-0.32284 -0.100613,-0.147584 -0.150564,-0.344978 -0.150564,-0.594026l0 -0.112107c0,-0.231877 0.0479648,-0.430264 0.144746,-0.595019 0.0957877,-0.164897 0.236702,-0.290343 0.422601,-0.374778 0.184906,-0.0851446 0.408127,-0.128285 0.670656,-0.128285 0.1964,0 0.370805,0.0324969 0.523214,0.0967811 0.152409,0.0651356 0.279842,0.15993 0.382299,0.286512 0.101606,0.12644 0.177243,0.282538 0.226201,0.467586l0 0 -0.58168 0.269199 0 0c-0.050803,-0.16291 -0.124595,-0.287505 -0.223221,-0.372792 -0.0977744,-0.086138 -0.213713,-0.129278 -0.346964,-0.129278 -0.184906,0 -0.327665,0.0393084 -0.427284,0.117783 -0.100613,0.0786169 -0.150422,0.189731 -0.150422,0.333483l0 0.135096c0,0.112107 0.0296587,0.203212 0.0901114,0.272179 0.0593174,0.0699605 0.135096,0.123602 0.225066,0.16291 0.0911048,0.0391665 0.216551,0.0823065 0.37563,0.129278 0.00865637,0.00383151 0.0183061,0.00666966 0.0278139,0.00964973 0.00964973,0.00283815 0.0191575,0.00666966 0.0306521,0.00950782 0.00766302,0.00198671 0.015326,0.00482486 0.0239824,0.00766302 0.00865637,0.00283815 0.0171708,0.00482486 0.0268206,0.00681157 0.204063,0.0641423 0.372792,0.130271 0.506894,0.201083 0.133109,0.0699605 0.245217,0.175398 0.336321,0.317164 0.0909628,0.140914 0.13609,0.330645 0.13609,0.568199l0 0.179229c0,0.232871 -0.0489582,0.430264 -0.146591,0.594026 -0.0987678,0.163903 -0.24252,0.288498 -0.431258,0.374778 -0.188737,0.086138 -0.416783,0.129278 -0.68215,0.129278z"/>
  <path id="12345678910111213141516171819202122" class="fil0" d="M48.2259 14.3067l0.642842 0 0 3.74452 -0.642842 0 0 -3.74452zm-0.918001 -0.337315l2.47601 0 0 0.61517 -2.47601 0 0 -0.61517z"/>
 </g>
</svg>
